<svg id="Layer_1" data-name="Layer 1" xmlns="http://www.w3.org/2000/svg" viewBox="0 0 141.73 141.73"><defs><style>.cls-1{fill:#13294b;}</style></defs><title>dishwasher-icon</title><path class="cls-1" d="M99.94,29.39a70.94,70.94,0,0,0-70.86,70.86,70.83,70.83,0,0,0,70.86,70.87,70.87,70.87,0,1,0,0-141.73m0,138.54a67.68,67.68,0,1,1,67.68-67.68,67.49,67.49,0,0,1-67.68,67.68" transform="translate(-29.08 -29.39)"/><path class="cls-1" d="M84.28,107.64A16.34,16.34,0,1,0,100.61,124a16.35,16.35,0,0,0-16.33-16.33m0,31.07A14.74,14.74,0,1,1,99,124a14.75,14.75,0,0,1-14.74,14.74" transform="translate(-29.08 -29.39)"/><path class="cls-1" d="M139.87,132.44c.25-2.06.76-6.79.88-10s0-7.52-.2-16.25l-.09-3.63a53.5,53.5,0,0,0-5.79-21.9.28.28,0,0,1,0-.08l.14-.1a1.89,1.89,0,0,0,.58-2.17V73.59A2.73,2.73,0,0,0,133.51,71L124.82,71l-.43.07a2.73,2.73,0,0,0-1.88,2.56v4.76a1.88,1.88,0,0,0,.58,2.18l.14.09s0,0,0,0a53.92,53.92,0,0,0-5.8,21.95c-.28,11.46-.36,20.38-.23,23.85.11,2.75.42,5,.55,6l.06.44a31.37,31.37,0,0,0,2.29,7.53H105.87a27.18,27.18,0,1,0-43.19,0h-9.5c.81.94,1.64,1.87,2.5,2.76h88.46c.87-.9,1.71-1.82,2.53-2.76h-9.32a33,33,0,0,0,2.52-8m-19.06,1.34a86.25,86.25,0,0,0,9,.51,51.54,51.54,0,0,0,6.92-.43c-.54,2.17-1.51,5.3-2,5.8a27.67,27.67,0,0,1-5.74.28h-.59a32.18,32.18,0,0,1-5.55-.25c-.63-.75-1.59-4-2-5.92m11.82-60.06v4c-2.82-.1-5.7,0-7.36,0v-4Zm-.41,5.57a2.17,2.17,0,0,0-.2.56,3.45,3.45,0,0,0-.1.85H126a3.88,3.88,0,0,0-.13-.95,1.91,1.91,0,0,0-.16-.46c1.59,0,4.06-.08,6.52,0m-12,23.37c.23-9.38,4-17.8,5.3-20.36h6.9c1.19,2.39,5.07,10.89,5.3,20.37l.09,3.64c.21,8.66.32,13,.2,16.08s-.62,7.7-.86,9.72a.29.29,0,0,0,0,.09c-6.12,1-13.71.28-16.61-.05v0c-.13-.94-.42-3.15-.53-5.77-.13-3.41,0-12.26.23-23.68M59.87,124a24.41,24.41,0,1,1,42.4,16.48h-36A24.29,24.29,0,0,1,59.87,124" transform="translate(-29.08 -29.39)"/><path class="cls-1" d="M93.09,57.28a.92.92,0,0,0,.43-.11.84.84,0,0,0,.28-1.1.82.82,0,0,0-1.11-.28.8.8,0,0,0,.4,1.49" transform="translate(-29.08 -29.39)"/><path class="cls-1" d="M95.71,60.91A.79.79,0,0,0,95.43,62a.8.8,0,0,0,.68.4.69.69,0,0,0,.41-.13.76.76,0,0,0,.27-1.08.77.77,0,0,0-1.08-.28" transform="translate(-29.08 -29.39)"/><path class="cls-1" d="M98.66,86.5a.79.79,0,0,0-.27,1.08.76.76,0,0,0,.68.38,1,1,0,0,0,.42-.1.8.8,0,1,0-.83-1.36" transform="translate(-29.08 -29.39)"/><path class="cls-1" d="M99,47.4a.72.72,0,0,0,.42-.11.8.8,0,0,0,.26-1.1.79.79,0,0,0-1.08-.26A.77.77,0,0,0,98.3,47a.76.76,0,0,0,.68.39" transform="translate(-29.08 -29.39)"/><path class="cls-1" d="M98.73,66a.83.83,0,0,0-.3,1.11.85.85,0,0,0,.7.38.83.83,0,0,0,.4-.11.79.79,0,0,0,.28-1.1A.78.78,0,0,0,98.73,66" transform="translate(-29.08 -29.39)"/><path class="cls-1" d="M95.58,81.42a.8.8,0,0,0-.25,1.1.79.79,0,0,0,.67.39.76.76,0,0,0,.41-.13.78.78,0,0,0,.28-1.08.81.81,0,0,0-1.11-.28" transform="translate(-29.08 -29.39)"/><path class="cls-1" d="M92.92,77.83a.75.75,0,0,0,.43-.13.77.77,0,0,0,.25-1.08.78.78,0,0,0-1.08-.28.81.81,0,0,0-.28,1.11.78.78,0,0,0,.68.38" transform="translate(-29.08 -29.39)"/><path class="cls-1" d="M95.92,42.34a.83.83,0,0,0,.4-.11.79.79,0,0,0,.26-1.1.77.77,0,0,0-1.08-.28A.82.82,0,0,0,95.22,42a.85.85,0,0,0,.7.38" transform="translate(-29.08 -29.39)"/><path class="cls-1" d="M89.86,72.75a.71.71,0,0,0,.41-.11.8.8,0,1,0-.83-1.36.79.79,0,0,0,.42,1.47" transform="translate(-29.08 -29.39)"/><path class="cls-1" d="M83.4,81.42a.79.79,0,0,0-.27,1.1.8.8,0,0,0,.68.39.73.73,0,0,0,.4-.13.79.79,0,1,0-.81-1.36" transform="translate(-29.08 -29.39)"/><path class="cls-1" d="M80.32,76.34a.82.82,0,0,0-.27,1.11.78.78,0,0,0,.68.38.72.72,0,0,0,.42-.13.79.79,0,0,0,.28-1.08.82.82,0,0,0-1.11-.28" transform="translate(-29.08 -29.39)"/><path class="cls-1" d="M83.7,62.61a1,1,0,0,0,.43-.1.83.83,0,0,0,.25-1.11.78.78,0,0,0-1.08-.25A.77.77,0,0,0,83,62.23a.78.78,0,0,0,.68.38" transform="translate(-29.08 -29.39)"/><path class="cls-1" d="M84.08,42a1,1,0,0,0,.41-.11.83.83,0,0,0,.27-1.1.64.64,0,0,0-.2-.23c-.41.1-.8.23-1.2.34a.76.76,0,0,0,0,.69.82.82,0,0,0,.7.41" transform="translate(-29.08 -29.39)"/><path class="cls-1" d="M77.67,92.66a.84.84,0,0,0,.68.38.79.79,0,0,0,.42-.12.8.8,0,0,0,.28-1.09.82.82,0,0,0-1.11-.27.81.81,0,0,0-.27,1.1" transform="translate(-29.08 -29.39)"/><path class="cls-1" d="M90.1,52.18a.7.7,0,0,0,.4-.13A.77.77,0,0,0,90.78,51a.78.78,0,0,0-1.09-.28.76.76,0,0,0-.27,1.08.78.78,0,0,0,.68.41" transform="translate(-29.08 -29.39)"/><path class="cls-1" d="M80.64,57.55a.8.8,0,0,0,.68-1.21.79.79,0,0,0-1.1-.27.81.81,0,0,0-.26,1.1.8.8,0,0,0,.68.38" transform="translate(-29.08 -29.39)"/><path class="cls-1" d="M89.55,91.56a.79.79,0,0,0-.28,1.1A.84.84,0,0,0,90,93a.76.76,0,0,0,.42-.12.8.8,0,0,0,.26-1.09.78.78,0,0,0-1.08-.27" transform="translate(-29.08 -29.39)"/><path class="cls-1" d="M86.46,86.5a.79.79,0,0,0-.25,1.08.75.75,0,0,0,.68.38,1,1,0,0,0,.4-.1.8.8,0,1,0-.83-1.36" transform="translate(-29.08 -29.39)"/><path class="cls-1" d="M102.06,52.48a1,1,0,0,0,.41-.11.8.8,0,0,0,.27-1.11.81.81,0,0,0-1.38.83.83.83,0,0,0,.7.39" transform="translate(-29.08 -29.39)"/><path class="cls-1" d="M87.08,47.06a.62.62,0,0,0,.4-.11.79.79,0,0,0,.3-1.08.83.83,0,0,0-1.1-.3.81.81,0,0,0-.28,1.1.76.76,0,0,0,.68.39" transform="translate(-29.08 -29.39)"/><path class="cls-1" d="M86.78,67.69a.69.69,0,0,0,.41-.13.76.76,0,0,0,.27-1.08.82.82,0,0,0-1.1-.28.81.81,0,0,0,.42,1.49" transform="translate(-29.08 -29.39)"/><path class="cls-1" d="M119.72,42.34a.92.92,0,0,0,.43-.11,1,1,0,0,0,.23-.22l-1.44-.48a.83.83,0,0,0,.1.43.86.86,0,0,0,.68.38" transform="translate(-29.08 -29.39)"/><path class="cls-1" d="M132,62.61a1,1,0,0,0,.41-.1.8.8,0,1,0-.83-1.36.79.79,0,0,0-.26,1.08.76.76,0,0,0,.68.38" transform="translate(-29.08 -29.39)"/><path class="cls-1" d="M128.94,57.55a.88.88,0,0,0,.43-.12.79.79,0,0,0,.25-1.09.77.77,0,0,0-1.08-.27.79.79,0,0,0,.4,1.48" transform="translate(-29.08 -29.39)"/><path class="cls-1" d="M125.86,52.48a1.05,1.05,0,0,0,.43-.11.79.79,0,0,0,.25-1.11.78.78,0,0,0-1.08-.25.79.79,0,0,0,.4,1.47" transform="translate(-29.08 -29.39)"/><path class="cls-1" d="M122.8,47.4a.71.71,0,0,0,.41-.11.79.79,0,0,0,.27-1.1.81.81,0,0,0-1.1-.26.79.79,0,0,0-.26,1.08.77.77,0,0,0,.68.39" transform="translate(-29.08 -29.39)"/><path class="cls-1" d="M122.72,66a.77.77,0,0,0-.28,1.08.79.79,0,0,0,.68.41.64.64,0,0,0,.4-.13.78.78,0,0,0,.3-1.08.79.79,0,0,0-1.1-.28" transform="translate(-29.08 -29.39)"/><path class="cls-1" d="M120.08,81.42a.8.8,0,0,0,.41,1.49.83.83,0,0,0,.42-.13.8.8,0,0,0-.83-1.36" transform="translate(-29.08 -29.39)"/><path class="cls-1" d="M135.08,67.69a.75.75,0,0,0,.43-.13.77.77,0,0,0,.26-1.08.81.81,0,0,0-1.09-.28.83.83,0,0,0-.28,1.11.86.86,0,0,0,.68.38" transform="translate(-29.08 -29.39)"/><path class="cls-1" d="M140.72,57.55a.8.8,0,1,0-.68-.38.78.78,0,0,0,.68.38" transform="translate(-29.08 -29.39)"/><path class="cls-1" d="M137.76,71.28a.78.78,0,0,0-.27,1.09.76.76,0,0,0,.68.38.66.66,0,0,0,.4-.11.79.79,0,1,0-.81-1.36" transform="translate(-29.08 -29.39)"/><path class="cls-1" d="M137.64,52.48a1.14,1.14,0,0,0,.42-.11.81.81,0,0,0,.34-.47c-.38-.3-.75-.61-1.14-.9h0a.79.79,0,0,0,.41,1.47" transform="translate(-29.08 -29.39)"/><path class="cls-1" d="M105.12,57.55a.82.82,0,0,0,.43-.12.78.78,0,0,0,.25-1.09.76.76,0,0,0-1.08-.27.8.8,0,0,0-.28,1.1.83.83,0,0,0,.68.38" transform="translate(-29.08 -29.39)"/><path class="cls-1" d="M104.74,76.23a.79.79,0,0,0-.28,1.09.8.8,0,0,0,.68.4.73.73,0,0,0,.41-.13.76.76,0,0,0,.27-1.08.77.77,0,0,0-1.08-.28" transform="translate(-29.08 -29.39)"/><path class="cls-1" d="M108.14,82.82a1,1,0,0,0,.42-.1.85.85,0,0,0,.28-1.11.82.82,0,0,0-1.08-.28.83.83,0,0,0-.3,1.11.81.81,0,0,0,.68.38" transform="translate(-29.08 -29.39)"/><path class="cls-1" d="M101.72,71.11a.8.8,0,0,0-.27,1.11.76.76,0,0,0,.68.38.66.66,0,0,0,.4-.11.8.8,0,0,0,.3-1.08.84.84,0,0,0-1.11-.3" transform="translate(-29.08 -29.39)"/><path class="cls-1" d="M119.72,60.85a.8.8,0,0,0,.4,1.49,1,1,0,0,0,.41-.11.83.83,0,0,0,.3-1.1.81.81,0,0,0-1.11-.28" transform="translate(-29.08 -29.39)"/><path class="cls-1" d="M101.74,91.56a.79.79,0,0,0-.27,1.1.84.84,0,0,0,.68.38.79.79,0,0,0,.42-.12.8.8,0,0,0-.83-1.36" transform="translate(-29.08 -29.39)"/><path class="cls-1" d="M111.16,47a.74.74,0,0,0,.4-.1.79.79,0,0,0,.28-1.09.8.8,0,0,0-1.09-.29.81.81,0,0,0-.29,1.1.79.79,0,0,0,.7.38" transform="translate(-29.08 -29.39)"/><path class="cls-1" d="M107.8,61.15a.78.78,0,0,0-.28,1.08.76.76,0,0,0,.68.38,1,1,0,0,0,.41-.1.8.8,0,0,0,.27-1.11.78.78,0,0,0-1.08-.25" transform="translate(-29.08 -29.39)"/><path class="cls-1" d="M77.24,71.28A.8.8,0,0,0,77,72.37a.76.76,0,0,0,.68.38.7.7,0,0,0,.4-.11.8.8,0,0,0,.28-1.1.83.83,0,0,0-1.11-.26" transform="translate(-29.08 -29.39)"/><path class="cls-1" d="M108.16,41.85a.72.72,0,0,0,.4-.1.78.78,0,0,0,.28-1.09.79.79,0,0,0-1.36.81.77.77,0,0,0,.68.38" transform="translate(-29.08 -29.39)"/><path class="cls-1" d="M114.15,52.09a1,1,0,0,0,.41-.1.82.82,0,0,0,.27-1.09.79.79,0,0,0-1.08-.29.83.83,0,0,0-.3,1.1.84.84,0,0,0,.7.38" transform="translate(-29.08 -29.39)"/><path class="cls-1" d="M113.94,71.28a.8.8,0,0,0-.28,1.09.81.81,0,0,0,.69.38.72.72,0,0,0,.42-.11.8.8,0,0,0,.25-1.1.79.79,0,0,0-1.08-.26" transform="translate(-29.08 -29.39)"/><path class="cls-1" d="M54.29,72.75a.66.66,0,0,0,.4-.11.79.79,0,1,0-.82-1.36.78.78,0,0,0-.26,1.09.77.77,0,0,0,.68.38" transform="translate(-29.08 -29.39)"/><path class="cls-1" d="M113.77,91.56a.81.81,0,0,0-.3,1.08.84.84,0,0,0,.71.4,1,1,0,0,0,.4-.1.8.8,0,0,0,.27-1.11.78.78,0,0,0-1.08-.27" transform="translate(-29.08 -29.39)"/><path class="cls-1" d="M117.15,57.22a.81.81,0,0,0,.68-1.19.79.79,0,0,0-1.08-.3.82.82,0,0,0-.3,1.1.84.84,0,0,0,.7.39" transform="translate(-29.08 -29.39)"/><path class="cls-1" d="M117,76.34a.81.81,0,0,0-.25,1.11.76.76,0,0,0,.68.38.66.66,0,0,0,.4-.13.77.77,0,0,0,.28-1.08.82.82,0,0,0-1.11-.28" transform="translate(-29.08 -29.39)"/><path class="cls-1" d="M140.82,76.34a.84.84,0,0,0-.27,1.11.83.83,0,0,0,.7.38.73.73,0,0,0,.4-.13.79.79,0,0,0,.28-1.08.82.82,0,0,0-1.11-.28" transform="translate(-29.08 -29.39)"/><path class="cls-1" d="M54.29,92.66A.86.86,0,0,0,55,93a.82.82,0,0,0,.43-.12.8.8,0,1,0-1.11-.26" transform="translate(-29.08 -29.39)"/><path class="cls-1" d="M56.84,57.55a.75.75,0,0,0,.41-.12A.79.79,0,0,0,57.06,56c-.33.32-.66.63-1,1a1,1,0,0,0,.08.22.8.8,0,0,0,.68.38" transform="translate(-29.08 -29.39)"/><path class="cls-1" d="M110.75,86.46a.76.76,0,0,0-.27,1.08.75.75,0,0,0,.68.38.7.7,0,0,0,.4-.1.81.81,0,0,0,.3-1.09.8.8,0,0,0-1.11-.27" transform="translate(-29.08 -29.39)"/><path class="cls-1" d="M57,76.34a.83.83,0,0,0-.28,1.11.81.81,0,0,0,.68.38.75.75,0,0,0,.43-.13A.76.76,0,0,0,58,76.62.78.78,0,0,0,57,76.34" transform="translate(-29.08 -29.39)"/><path class="cls-1" d="M110.86,66.2a.85.85,0,0,0-.28,1.11.89.89,0,0,0,.7.38.73.73,0,0,0,.41-.13.78.78,0,0,0,.27-1.08.82.82,0,0,0-1.1-.28" transform="translate(-29.08 -29.39)"/><path class="cls-1" d="M152.6,76.34a.8.8,0,0,0,.4,1.49.7.7,0,0,0,.42-.13.79.79,0,0,0-.82-1.36" transform="translate(-29.08 -29.39)"/><path class="cls-1" d="M155.66,81.42a.81.81,0,0,0,.42,1.49.71.71,0,0,0,.4-.13.77.77,0,0,0,.28-1.08.79.79,0,0,0-1.1-.28" transform="translate(-29.08 -29.39)"/><path class="cls-1" d="M158.74,86.5a.79.79,0,0,0-.28,1.08.81.81,0,0,0,.68.38,1,1,0,0,0,.43-.1.83.83,0,0,0,.27-1.11.81.81,0,0,0-1.1-.25" transform="translate(-29.08 -29.39)"/><path class="cls-1" d="M162.9,91.83a.79.79,0,0,0-1.08-.27.8.8,0,0,0-.28,1.1.86.86,0,0,0,.68.38.82.82,0,0,0,.43-.12.79.79,0,0,0,.25-1.09" transform="translate(-29.08 -29.39)"/><path class="cls-1" d="M150.05,91.56a.81.81,0,0,0-.28,1.1.85.85,0,0,0,.7.38.75.75,0,0,0,.4-.12.79.79,0,0,0-.82-1.36" transform="translate(-29.08 -29.39)"/><path class="cls-1" d="M77.56,52.48a1,1,0,0,0,.42-.11.81.81,0,0,0,.26-1.11A.79.79,0,0,0,77.16,51a.79.79,0,0,0,.4,1.47" transform="translate(-29.08 -29.39)"/><path class="cls-1" d="M146.86,67.69a.66.66,0,0,0,.4-.13.77.77,0,0,0,.28-1.08.83.83,0,0,0-1.11-.28.81.81,0,0,0,.43,1.49" transform="translate(-29.08 -29.39)"/><path class="cls-1" d="M143.9,81.42a.79.79,0,0,0-.27,1.1.83.83,0,0,0,.68.39A.81.81,0,0,0,145,81.7a.78.78,0,0,0-1.09-.28" transform="translate(-29.08 -29.39)"/><path class="cls-1" d="M150.34,72.64a.8.8,0,1,0-.83-1.36.78.78,0,0,0-.25,1.09.77.77,0,0,0,.68.38.68.68,0,0,0,.4-.11" transform="translate(-29.08 -29.39)"/><path class="cls-1" d="M147,86.5a.78.78,0,0,0-.25,1.08.75.75,0,0,0,.68.38.91.91,0,0,0,.4-.1.8.8,0,0,0,.28-1.11A.82.82,0,0,0,147,86.5" transform="translate(-29.08 -29.39)"/><path class="cls-1" d="M143.78,62.61a1,1,0,0,0,.42-.1.81.81,0,0,0,.26-1.11.8.8,0,0,0-1.36.83.77.77,0,0,0,.68.38" transform="translate(-29.08 -29.39)"/><path class="cls-1" d="M68.46,77.45a.79.79,0,0,0,.69.38.73.73,0,0,0,.4-.13.78.78,0,0,0,.27-1.08.8.8,0,1,0-1.36.83" transform="translate(-29.08 -29.39)"/><path class="cls-1" d="M68.44,57.55a.81.81,0,0,0,.41-.12A.8.8,0,1,0,68,56.07a.81.81,0,0,0-.26,1.1.8.8,0,0,0,.68.38" transform="translate(-29.08 -29.39)"/><path class="cls-1" d="M71.53,62.61a1,1,0,0,0,.4-.1.83.83,0,0,0,.28-1.11.82.82,0,0,0-1.11-.25.8.8,0,0,0-.28,1.08.82.82,0,0,0,.71.38" transform="translate(-29.08 -29.39)"/><path class="cls-1" d="M66.17,91.56a.8.8,0,0,0-.28,1.1.86.86,0,0,0,.68.38.75.75,0,0,0,.41-.12.77.77,0,0,0,.27-1.09.78.78,0,0,0-1.08-.27" transform="translate(-29.08 -29.39)"/><path class="cls-1" d="M65.64,71.28a.81.81,0,0,0-.26,1.09.78.78,0,0,0,.68.38.67.67,0,0,0,.41-.11.79.79,0,0,0,.27-1.1.81.81,0,0,0-1.1-.26" transform="translate(-29.08 -29.39)"/><path class="cls-1" d="M65.36,52.48a1.14,1.14,0,0,0,.43-.11A.81.81,0,0,0,65,51a.8.8,0,0,0,.4,1.49" transform="translate(-29.08 -29.39)"/><path class="cls-1" d="M74.18,66.2a.82.82,0,0,0-.28,1.11.86.86,0,0,0,.69.38.79.79,0,0,0,.42-.13.77.77,0,0,0,.25-1.08.8.8,0,0,0-1.08-.28" transform="translate(-29.08 -29.39)"/><path class="cls-1" d="M74.86,86.5a.78.78,0,0,0-.25,1.08.74.74,0,0,0,.68.38,1,1,0,0,0,.4-.1A.81.81,0,0,0,76,86.75a.83.83,0,0,0-1.11-.25" transform="translate(-29.08 -29.39)"/><path class="cls-1" d="M74.48,47.4a.68.68,0,0,0,.42-.11.81.81,0,0,0,.28-1.1.82.82,0,0,0-1.11-.26A.8.8,0,0,0,73.8,47a.78.78,0,0,0,.68.39" transform="translate(-29.08 -29.39)"/><path class="cls-1" d="M71.8,81.42a.8.8,0,0,0,.41,1.49.83.83,0,0,0,.42-.13.78.78,0,0,0,.25-1.08.77.77,0,0,0-1.08-.28" transform="translate(-29.08 -29.39)"/><path class="cls-1" d="M42.8,91.56a.78.78,0,0,0-.28,1.1.84.84,0,0,0,.68.38.79.79,0,0,0,.42-.12.82.82,0,0,0,.28-1.09.81.81,0,0,0-1.1-.27" transform="translate(-29.08 -29.39)"/><path class="cls-1" d="M51.49,86.5a.79.79,0,0,0-.28,1.08.77.77,0,0,0,.68.38,1,1,0,0,0,.43-.1.83.83,0,0,0,.27-1.11.81.81,0,0,0-1.1-.25" transform="translate(-29.08 -29.39)"/><path class="cls-1" d="M63.09,86.5A.78.78,0,0,0,63.51,88a1,1,0,0,0,.41-.1.8.8,0,1,0-.83-1.36" transform="translate(-29.08 -29.39)"/><path class="cls-1" d="M45.34,76.34a.81.81,0,0,0-.27,1.11.79.79,0,0,0,.68.38.7.7,0,0,0,.42-.13.79.79,0,0,0,.26-1.08.8.8,0,0,0-1.09-.28" transform="translate(-29.08 -29.39)"/><path class="cls-1" d="M51.61,67.56a.77.77,0,0,0,.28-1.08.8.8,0,1,0-1.36.83.82.82,0,0,0,.68.38.64.64,0,0,0,.4-.13" transform="translate(-29.08 -29.39)"/><path class="cls-1" d="M48.4,81.42a.81.81,0,0,0-.25,1.1.8.8,0,0,0,.68.39.76.76,0,0,0,.4-.13.77.77,0,0,0,.28-1.08.8.8,0,0,0-1.11-.28" transform="translate(-29.08 -29.39)"/><path class="cls-1" d="M60,81.42a.8.8,0,0,0-.28,1.1.76.76,0,0,0,1.09.26A.79.79,0,0,0,60,81.42" transform="translate(-29.08 -29.39)"/><path class="cls-1" d="M63,67.69a.75.75,0,0,0,.43-.13.77.77,0,0,0,.25-1.08.79.79,0,0,0-1.08-.28.82.82,0,0,0-.28,1.11.86.86,0,0,0,.68.38" transform="translate(-29.08 -29.39)"/><path class="cls-1" d="M59.92,62.61a1,1,0,0,0,.41-.1.83.83,0,0,0,.27-1.11.8.8,0,0,0-1.1-.25.79.79,0,0,0,.42,1.46" transform="translate(-29.08 -29.39)"/><path class="cls-1" d="M39.84,86.45c-.09.41-.2.82-.28,1.23a.77.77,0,0,0,.58.28,1,1,0,0,0,.4-.1.79.79,0,0,0-.7-1.41" transform="translate(-29.08 -29.39)"/></svg>